<svg xmlns="http://www.w3.org/2000/svg" version="1.1" xmlns:xlink="http://www.w3.org/1999/xlink" 
xmlns:svgjs="http://svgjs.dev/svgjs" width="1000" height="750" viewBox="0 0 1000 750"><rect width="1000" height="750" 
fill="#0a1627"></rect><g transform="matrix(0.5845845845845846,0,0,0.5845845845845846,207.58158741832204,82.87400583090377)">
<svg viewBox="0 0 343 343" data-background-color="#0a1627" preserveAspectRatio="xMidYMid meet" height="999" width="1000" 
xmlns="http://www.w3.org/2000/svg" xmlns:xlink="http://www.w3.org/1999/xlink"><g id="tight-bounds"
 transform="matrix(1,0,0,1,0.0740000000000407,0.07400000000001228)"><svg viewBox="0 0 342.85155851775386 342.85155851775386"
  height="342.85155851775386" width="342.85155851775386"><g><svg></svg></g><g>
  <svg viewBox="0 0 342.85155851775386 342.85155851775386" height="342.85155851775386"
   width="342.85155851775386"><g><path d="M0 171.426c0-94.676 76.75-171.426 171.426-171.426 94.676 0 171.426 76.75 171.426 171.426 0 94.676-76.75 171.426-171.426 171.426-94.676 0-171.426-76.75-171.426-171.426zM171.426 333.806c89.68 0 162.38-72.7 162.38-162.38 0-89.68-72.7-162.38-162.38-162.381-89.68 0-162.38 72.7-162.381 162.381 0 89.68 72.7 162.38 162.381 162.38z" data-fill-palette-color="tertiary" fill="#df4c6c" stroke="transparent"></path><ellipse rx="164.56874808852186" ry="164.56874808852186" cx="171.42577925887693" cy="171.42577925887693" fill="#df4c6c" stroke="transparent" stroke-width="0" fill-opacity="1" data-fill-palette-color="tertiary"></ellipse></g><g transform="matrix(1,0,0,1,64.84655864529837,121.27465844799448)"><svg viewBox="0 0 213.1584412271571 100.30224162176489" height="100.30224162176489" width="213.1584412271571"><g><svg viewBox="0 0 213.1584412271571 100.30224162176489" height="100.30224162176489" width="213.1584412271571"><g><svg viewBox="0 0 213.1584412271571 100.30224162176489" height="100.30224162176489" width="213.1584412271571"><g><svg viewBox="0 0 213.1584412271571 100.30224162176489" height="100.30224162176489" width="213.1584412271571"><g><svg viewBox="0 0 213.1584412271571 100.30224162176489" height="100.30224162176489" width="213.1584412271571"><g><svg viewBox="0 0 213.1584412271571 100.30224162176489" height="100.30224162176489" width="213.1584412271571"><g transform="matrix(1,0,0,1,0,0)"><svg width="213.1584412271571" viewBox="3.6500000953674316 -38.099998474121094 82.3499984741211 38.75" height="100.30224162176489" data-palette-color="#0a1627"><path d="M26.7 0L26.7-17.2 9-17.2 9 0 4.35 0 4.35-33.1Q4.35-33.15 4.17-33.9 4-34.65 3.85-35.45 3.7-36.25 3.65-36.4L3.65-36.4 9-36.4 9-20.6 26.7-20.6 26.7-36.4 31.35-36.4 31.35 0 26.7 0ZM48.35-25.45L48.35-25.45Q52.3-25.45 54.3-23.3 56.3-21.15 56.3-17.25L56.3-17.25 56.3-4.8Q56.3-3.75 56.7-3.38 57.1-3 57.65-3L57.65-3Q58.1-3 58.6-3.13 59.1-3.25 59.55-3.45L59.55-3.45 60.45-0.75Q59.65-0.3 58.42 0.08 57.2 0.45 55.9 0.45L55.9 0.45Q54.6 0.45 53.55-0.28 52.5-1 52.25-2.95L52.25-2.95Q50.8-1.4 48.85-0.43 46.9 0.55 44.75 0.55L44.75 0.55Q41.8 0.55 39.85-1.2 37.9-2.95 37.9-6L37.9-6Q37.9-8.85 39.27-10.55 40.65-12.25 42.85-13.1 45.05-13.95 47.52-14.25 50-14.55 52.15-14.55L52.15-14.55 52.15-17.2Q52.15-19.3 51.3-20.75 50.45-22.2 48-22.2L48-22.2Q46.1-22.2 44.35-21.45 42.6-20.7 40.85-19.25L40.85-19.25 38.8-22.2Q40.85-23.85 43.3-24.65 45.75-25.45 48.35-25.45ZM52.15-9.7L52.15-11.3Q50.8-11.3 49.1-11.18 47.4-11.05 45.8-10.58 44.2-10.1 43.17-9.05 42.15-8 42.15-6.15L42.15-6.15Q42.15-4.5 43.27-3.73 44.4-2.95 46.1-2.95L46.1-2.95Q47.9-2.95 49.25-3.95 50.6-4.95 51.37-6.5 52.15-8.05 52.15-9.7L52.15-9.7ZM75.65-25.35L75.65-25.35Q78.25-25.35 80.2-24.25 82.15-23.15 83.42-21.28 84.7-19.4 85.35-17.15 86-14.9 86-12.55L86-12.55Q86-9.2 84.82-6.18 83.65-3.15 81.22-1.25 78.8 0.65 75.05 0.65L75.05 0.65Q72.95 0.65 71.02-0.15 69.1-0.95 67.75-2.55L67.75-2.55 66.85 0.05 64.35 0.05Q64.4-0.8 64.45-1.68 64.5-2.55 64.5-3.4L64.5-3.4 64.5-35.2 63.8-38.1 68.65-38.1 68.65-24.3Q68.65-23.85 68.62-23.43 68.6-23 68.55-22.55L68.55-22.55Q70.15-24 71.82-24.68 73.5-25.35 75.65-25.35ZM74.6-21.8L74.6-21.8Q72.95-21.8 71.37-21.03 69.8-20.25 68.65-19.05L68.65-19.05 68.65-9.95Q68.65-7.85 69.25-6.15 69.85-4.45 71.22-3.45 72.6-2.45 74.9-2.45L74.9-2.45Q76.8-2.45 78.07-3.43 79.35-4.4 80.1-5.93 80.85-7.45 81.2-9.18 81.55-10.9 81.55-12.4L81.55-12.4Q81.55-14.05 81.17-15.7 80.8-17.35 79.97-18.73 79.15-20.1 77.82-20.95 76.5-21.8 74.6-21.8Z" opacity="1" transform="matrix(1,0,0,1,0,0)" fill="#0a1627" class="undefined-text-0" data-fill-palette-color="quaternary" id="text-0"></path></svg></g></svg></g></svg></g></svg></g><g></g></svg></g></svg></g></svg></g></svg></g><defs></defs></svg><rect width="342.85155851775386" height="342.85155851775386" fill="none" stroke="none" visibility="hidden"></rect></g></svg></g></svg>